<svg xmlns="http://www.w3.org/2000/svg" version="1.1" viewBox="0 0 186.243 220.8094">
  <g id="Left" stroke-dasharray="none" stroke-opacity="1" fill="none" stroke="none" fill-opacity="1">
    <title>Left</title>
    <g id="Left: Calque 1">
      <title>Calque 1</title>
      <g id="Graphic_2">
        <path d="M 173.5501 90.90942 C 164.0501 87.90942 154.0501 93.20942 151.0501 102.70942 C 148.3501 111.50942 144.2501 122.60942 139.6501 133.30942 C 138.8501 132.30942 138.1501 131.10942 137.5501 129.80942 C 136.4501 127.50942 135.7501 125.00942 135.2501 122.40942 C 136.4501 113.30942 137.7501 104.30942 138.9501 95.30942 C 141.6501 75.40942 144.4501 55.609424 147.1501 34.809424 C 148.2501 26.209424 142.2501 18.309424 133.6501 17.209424 C 125.0501 16.109424 117.1501 22.109424 116.0501 30.709424 C 113.3501 51.009424 110.7501 70.409424 108.0501 89.90942 C 107.0501 89.50942 105.9501 89.10942 104.9501 88.70942 C 105.1501 80.10942 105.3501 71.409424 105.6501 62.809424 C 106.0501 47.609424 106.4501 32.209424 106.8501 16.109424 C 107.0501 7.409424 100.2501 .2094244 91.5501 .009424409 C 82.9501 -.2905756 75.6501 6.6094244 75.4501 15.309424 C 75.0501 31.409424 74.6501 46.809424 74.2501 62.009424 C 74.0501 70.509424 73.8501 78.90942 73.5501 87.40942 C 72.4501 87.70942 71.4501 88.10942 70.3501 88.50942 L 67.9501 58.209424 C 67.6501 54.709424 67.3501 50.609424 66.9501 46.109424 C 66.5501 41.309424 66.0501 35.909424 65.5501 29.809424 C 64.8501 21.209424 57.2501 14.809424 48.650103 15.509424 C 40.050103 16.209424 33.550103 23.809424 34.350103 32.409424 C 34.850103 38.409424 35.350103 43.909424 35.750103 48.709424 C 36.150103 53.209424 36.450103 57.209424 36.750103 60.709424 L 39.850103 99.10942 C 38.550103 99.40942 37.150103 99.70942 35.750103 100.00942 C 33.750103 90.30942 31.850103 80.50942 30.050103 70.609424 C 28.450103 62.409424 20.550103 57.009424 12.350103 58.509424 C 4.1501034 60.109424 -1.2498966 68.009424 .25010336 76.20942 C 4.1501034 96.60942 8.150103 116.80942 12.350103 136.00942 C 14.450103 145.80942 16.650103 155.50942 18.850103 165.10942 C 19.150103 166.50942 19.350103 167.80942 19.650103 169.20942 C 20.050103 171.30942 20.450103 173.40942 20.850103 175.40942 L 21.650103 179.60942 C 23.750103 190.20942 29.750103 199.40942 38.550103 205.70942 C 48.550103 212.80942 59.6501 217.40942 71.3501 219.50942 C 74.7501 220.10942 79.9501 220.80942 86.2501 220.80942 C 98.6501 220.80942 115.2501 218.10942 130.7501 207.00942 C 134.7501 204.10942 143.3501 197.40942 149.8501 188.30942 C 168.9501 164.60942 183.6501 118.80942 185.4501 113.20942 C 188.3501 103.90942 183.0501 93.80942 173.5501 90.90942 Z" fill="#293032"/>
      </g>
    </g>
  </g>
</svg>
