<?xml version="1.0" encoding="UTF-8" standalone="no"?>
<!DOCTYPE svg PUBLIC "-//W3C//DTD SVG 1.1//EN" "http://www.w3.org/Graphics/SVG/1.1/DTD/svg11.dtd">
<svg xmlns:dc="http://purl.org/dc/elements/1.1/" xmlns="http://www.w3.org/2000/svg" xmlns:xl="http://www.w3.org/1999/xlink" version="1.1" viewBox="595 410 44 40" width="44" height="40">
  <defs/>
  <metadata> Produced by OmniGraffle 7.11.3 
    <dc:date>2019-10-08 03:16:42 +0000</dc:date>
  </metadata>
  <g id="Canevas_1" fill="none" fill-opacity="1" stroke-opacity="1" stroke-dasharray="none" stroke="none">
    <title>Canevas 1</title>
    <g id="Canevas_1: Calque 1">
      <title>Calque 1</title>
      <g id="Graphic_3">
        <title>Thumb Down</title>
        <path d="M 623 410 L 605 410 C 603.34 410 601.92 411 601.32 412.44 L 595.28 426.54 C 595.1 427 595 427.48 595 428 L 595 431.82 L 595.02 431.84 L 595 432 C 595 434.2 596.8 436 599 436 L 611.62 436 L 609.72 445.14 L 609.66 445.78 C 609.66 446.6 610 447.36 610.54 447.9 L 612.66 450 L 625.84 436.82 C 626.56 436.1 627 435.1 627 434 L 627 414 C 627 411.8 625.2 410 623 410 Z M 631 410 L 631 434 L 639 434 L 639 410 L 631 410 Z" fill="black"/>
      </g>
    </g>
  </g>
</svg>
