<svg xmlns="http://www.w3.org/2000/svg" version="1.1" viewBox="0 0 186.243 220.8094">
  <g id="Right" stroke-dasharray="none" stroke-opacity="1" fill="none" stroke="none" fill-opacity="1">
    <title>Right</title>
    <g id="Right: Calque 1">
      <title>Calque 1</title>
      <g id="Graphic_2">
        <path d="M 12.692892 90.90942 C 22.192892 87.90942 32.192892 93.20942 35.192892 102.70942 C 37.892892 111.50942 41.99289 122.60942 46.59289 133.30942 C 47.39289 132.30942 48.09289 131.10942 48.69289 129.80942 C 49.79289 127.50942 50.49289 125.00942 50.99289 122.40942 C 49.79289 113.30942 48.49289 104.30942 47.29289 95.30942 C 44.59289 75.40942 41.79289 55.609424 39.092892 34.809424 C 37.992892 26.209424 43.99289 18.309424 52.59289 17.209424 C 61.19289 16.109424 69.09289 22.109424 70.19289 30.709424 C 72.89289 51.009424 75.49289 70.409424 78.19289 89.90942 C 79.19289 89.50942 80.29289 89.10942 81.29289 88.70942 C 81.09289 80.10942 80.89289 71.409424 80.59289 62.809424 C 80.19289 47.609424 79.79289 32.209424 79.39289 16.109424 C 79.19289 7.409424 85.99289 .2094244 94.69289 .009424409 C 103.29289 -.2905756 110.59289 6.6094244 110.79289 15.309424 C 111.19289 31.409424 111.59289 46.809424 111.99289 62.009424 C 112.19289 70.509424 112.39289 78.90942 112.69289 87.40942 C 113.79289 87.70942 114.79289 88.10942 115.89289 88.50942 L 118.29289 58.209424 C 118.59289 54.709424 118.89289 50.609424 119.29289 46.109424 C 119.69289 41.309424 120.19289 35.909424 120.69289 29.809424 C 121.39289 21.209424 128.9929 14.809424 137.5929 15.509424 C 146.1929 16.209424 152.6929 23.809424 151.8929 32.409424 C 151.3929 38.409424 150.8929 43.909424 150.4929 48.709424 C 150.0929 53.209424 149.7929 57.209424 149.4929 60.709424 L 146.3929 99.10942 C 147.6929 99.40942 149.0929 99.70942 150.4929 100.00942 C 152.4929 90.30942 154.3929 80.50942 156.1929 70.609424 C 157.7929 62.409424 165.6929 57.009424 173.8929 58.509424 C 182.0929 60.109424 187.4929 68.009424 185.9929 76.20942 C 182.0929 96.60942 178.0929 116.80942 173.8929 136.00942 C 171.7929 145.80942 169.5929 155.50942 167.3929 165.10942 C 167.0929 166.50942 166.8929 167.80942 166.5929 169.20942 C 166.1929 171.30942 165.7929 173.40942 165.3929 175.40942 L 164.5929 179.60942 C 162.4929 190.20942 156.4929 199.40942 147.6929 205.70942 C 137.6929 212.80942 126.59289 217.40942 114.89289 219.50942 C 111.49289 220.10942 106.29289 220.80942 99.99289 220.80942 C 87.59289 220.80942 70.99289 218.10942 55.49289 207.00942 C 51.49289 204.10942 42.89289 197.40942 36.392892 188.30942 C 17.292892 164.60942 2.5928923 118.80942 .7928923 113.20942 C -2.1071077 103.90942 3.1928923 93.80942 12.692892 90.90942 Z" fill="#293032"/>
      </g>
    </g>
  </g>
</svg>
