<svg xmlns="http://www.w3.org/2000/svg" version="1.1" viewBox="-5 -5 184.268 252.0186">
  <g id="Run" stroke-dasharray="none" stroke-opacity="1" fill="none" stroke="none" fill-opacity="1">
    <title>Run</title>
    <g id="Run: Calque 1">
      <title>Calque 1</title>
      <g id="Group_2">
        <title>Groupe</title>
        <g id="Graphic_4">
          <circle cx="105.98792" cy="25.4073" r="25.4006946299771" fill="#293032"/>
        </g>
        <g id="Graphic_3">
          <path d="M 173.00134 110.61856 C 163.80134 105.31856 155.40134 98.91856 147.90134 91.51856 C 141.20134 84.91856 135.20134 77.31856 130.00134 69.11856 C 128.00134 65.91856 124.80134 63.81856 121.10134 63.21856 L 113.60134 62.11856 C 113.10134 62.01856 112.60134 62.11856 112.10134 62.01856 L 88.90134 58.51856 C 85.80134 57.81856 82.70134 57.31856 79.80134 57.11856 C 60.40134 55.51856 43.00134 61.01856 30.901342 72.61856 C 21.601342 81.61856 15.501342 94.21856 13.901342 108.01856 C 13.101342 114.91856 18.101342 121.21856 25.001342 122.01856 C 25.501342 122.11856 26.001342 122.11856 26.501342 122.11856 C 32.801342 122.11856 38.30134 117.41856 39.00134 110.91856 C 39.50134 106.21856 41.50134 97.41856 48.40134 90.81856 C 53.40134 86.01856 60.50134 83.01856 68.70134 82.31856 C 67.00134 104.01856 63.60134 125.71856 58.50134 147.01856 L 57.00134 153.21856 C 54.00134 158.01856 51.00134 162.81856 48.00134 167.51856 L 42.00134 177.11856 C 39.20134 181.61856 34.401342 184.11856 29.101342 184.11856 L 12.901342 183.81856 C 6.101342 183.61856 .20134222 189.21856 .0013422184 196.21856 C -.09865778 203.21856 5.401342 208.91856 12.401342 209.11856 L 28.601342 209.41856 C 42.50134 209.51856 55.80134 202.41856 63.30134 190.61856 L 69.30134 181.01856 C 71.20134 178.01856 73.10134 174.91856 75.10134 171.91856 L 96.10134 175.11856 L 105.80134 194.11856 C 109.40134 201.11856 111.20134 209.01856 111.10134 216.91856 C 111.10134 219.81856 111.00134 222.71856 111.00134 225.61856 C 111.00134 228.51856 110.90134 231.31856 110.90134 234.21856 C 110.80134 241.21856 116.40134 246.91856 123.30134 247.01856 C 123.40134 247.01856 123.40134 247.01856 123.50134 247.01856 C 130.40134 247.01856 136.00134 241.51856 136.10134 234.61856 C 136.10134 231.71856 136.20134 228.81856 136.20134 225.91856 C 136.20134 223.01856 136.30134 220.21856 136.30134 217.21856 C 136.40134 205.21856 133.60134 193.21856 128.20134 182.61856 L 117.30134 161.21856 L 119.90134 136.61856 C 121.10134 125.71856 122.70134 114.71856 124.70134 104.01856 C 126.40134 105.91856 128.20134 107.71856 130.00134 109.51856 C 139.00134 118.41856 149.20134 126.11856 160.20134 132.51856 C 162.20134 133.61856 164.30134 134.21856 166.50134 134.21856 C 170.90134 134.21856 175.10134 131.91856 177.50134 127.91856 C 181.10134 121.81856 179.00134 114.11856 173.00134 110.61856 Z" fill="#293032"/>
        </g>
      </g>
    </g>
  </g>
</svg>
