<svg xmlns="http://www.w3.org/2000/svg" version="1.1" viewBox="574.5 411 38.908493 40" width="38.908493" height="40">
  <g id="Canevas_1" fill="none" fill-opacity="1" stroke-opacity="1" stroke-dasharray="none" stroke="none">
    <title>Canevas 1</title>
    <g id="Canevas_1: Calque 1">
      <title>Calque 1</title>
      <g id="Graphic_2">
        <title>Settings</title>
        <path d="M 608.8187 432.96 C 608.8987 432.32 608.9587 431.68 608.9587 431 C 608.9587 430.32 608.8987 429.68 608.8187 429.04 L 613.0387 425.74 C 613.4187 425.44 613.5187 424.9 613.2787 424.46 L 609.2787 417.54 C 609.0387 417.1 608.4987 416.94 608.0587 417.1 L 603.0787 419.1 C 602.0387 418.3 600.9187 417.64 599.69866 417.14 L 598.93866 411.84 C 598.87866 411.36 598.45866 411 597.95866 411 L 589.95866 411 C 589.45866 411 589.03866 411.36 588.97866 411.84 L 588.21866 417.14 C 586.99866 417.64 585.87866 418.32 584.83866 419.1 L 579.85866 417.1 C 579.39866 416.92 578.87866 417.1 578.63866 417.54 L 574.63866 424.46 C 574.37866 424.9 574.49866 425.44 574.87866 425.74 L 579.09866 429.04 C 579.01866 429.68 578.95866 430.34 578.95866 431 C 578.95866 431.66 579.01866 432.32 579.09866 432.96 L 574.87866 436.26 C 574.49866 436.56 574.39866 437.1 574.63866 437.54 L 578.63866 444.46 C 578.87866 444.9 579.41866 445.06 579.85866 444.9 L 584.83866 442.9 C 585.87866 443.7 586.99866 444.36 588.21866 444.86 L 588.97866 450.16 C 589.03866 450.64 589.45866 451 589.95866 451 L 597.95866 451 C 598.45866 451 598.87866 450.64 598.93866 450.16 L 599.69866 444.86 C 600.9187 444.36 602.0387 443.68 603.0787 442.9 L 608.0587 444.9 C 608.5187 445.08 609.0387 444.9 609.2787 444.46 L 613.2787 437.54 C 613.5187 437.1 613.4187 436.56 613.0387 436.26 L 608.8187 432.96 Z M 593.95866 438 C 590.09866 438 586.95866 434.86 586.95866 431 C 586.95866 427.14 590.09866 424 593.95866 424 C 597.81866 424 600.9587 427.14 600.9587 431 C 600.9587 434.86 597.81866 438 593.95866 438 Z" fill="black"/>
      </g>
    </g>
  </g>
</svg>
