<svg xmlns="http://www.w3.org/2000/svg" xml:space="preserve"
	style="enable-background:new 0 0 248.53 248.53" viewBox="0 0 248.53 248.53"><path d="M18.21 126.65c-7.5 12.21-12.69 31.86-4.09 47.37 8.09 14.58 24.81 19.07 33.47 21.26 51.52 13.05 120.11-16.45 161.61-67.56 10.99-13.54 26.27-36.22 35.96-69.61-13.49-17.2-26.96-34.41-40.43-51.61-66.1 58.98-111.44 81.49-141.9 90.44-7.46 2.19-31.76 8.78-44.62 29.71z" style="fill:#92678d"/><path d="M200.98 22.72c-.74 1.43-4.16 8.36-1.38 16 1.16 3.18 3 5.4 4.35 6.75.44-.89 2.53-4.92 7.36-6.67 6-2.17 11.15 1.04 11.75 1.43-1.06 1.24-5.32 6.51-5.05 14.27.22 6.09 3.11 10.3 4.27 11.82.08-.67.67-5.1 4.66-7.74 2.78-1.84 5.63-1.76 6.61-1.69.75 2.94 1.38 6.3 1.72 10.02.81 8.86-.33 16.41-1.69 21.9 1.57-3.1 3.57-7.29 5.59-12.37 1.31-3.3 4.15-10.41 5.97-18.31 3.05-13.21 2.57-25.65 2.18-31.1-.47-6.55-.8-13.33.85-19.69.22-.84.84-3.08-.28-4.28-1.01-1.07-2.71-.54-7.52.19-7.47 1.14-10.45.92-11.49.83-6.87-.57-8.18-2.71-12.77-2.97-4.89-.28-8.62 1.6-15.42 6.35-15.74 11-28.87 26.8-29.35 27.23l-.07.07c.04.05 6.3-4.89 17.79-8.94 4.59-1.62 8.69-2.54 11.92-3.1z" style="fill:#acc768"/><path d="M22.97 165.1c-10.15 16.63-15.99 31.17-19.45 41.5-3.56 10.62-4.41 16.22-2.59 22.2 2.5 8.23 10.52 18.81 22.05 18.65 11.43-.16 19.03-10.7 21.4-18.65 1.84-6.16.85-11.79-2.81-22.59-3.53-10.36-9.22-24.67-18.6-41.11z" style="fill:#fff"/></svg>