<?xml version="1.0" encoding="utf-8"?>
<!-- Generator: Adobe Illustrator 24.0.1, SVG Export Plug-In . SVG Version: 6.00 Build 0)  -->
<svg version="1.1" id="Calque_1" xmlns="http://www.w3.org/2000/svg" xmlns:xlink="http://www.w3.org/1999/xlink" x="0px" y="0px"
	 viewBox="0 0 248.53 248.53" style="enable-background:new 0 0 248.53 248.53;" xml:space="preserve">
<style type="text/css">
	.st0{fill:#92678D;}
	.st1{fill:#ACC768;}
	.st2{fill:#FFFFFF;}
</style>
<g>
	<path class="st0" d="M18.21,126.65c-7.5,12.21-12.69,31.86-4.09,47.37c8.09,14.58,24.81,19.07,33.47,21.26
		c51.52,13.05,120.11-16.45,161.61-67.56c10.99-13.54,26.27-36.22,35.96-69.61C231.67,40.91,218.2,23.7,204.73,6.5
		c-66.1,58.98-111.44,81.49-141.9,90.44C55.37,99.13,31.07,105.72,18.21,126.65z"/>
	<path class="st1" d="M200.98,22.72c-0.74,1.43-4.16,8.36-1.38,16c1.16,3.18,3,5.4,4.35,6.75c0.44-0.89,2.53-4.92,7.36-6.67
		c6-2.17,11.15,1.04,11.75,1.43c-1.06,1.24-5.32,6.51-5.05,14.27c0.22,6.09,3.11,10.3,4.27,11.82c0.08-0.67,0.67-5.1,4.66-7.74
		c2.78-1.84,5.63-1.76,6.61-1.69c0.75,2.94,1.38,6.3,1.72,10.02c0.81,8.86-0.33,16.41-1.69,21.9c1.57-3.1,3.57-7.29,5.59-12.37
		c1.31-3.3,4.15-10.41,5.97-18.31c3.05-13.21,2.57-25.65,2.18-31.1c-0.47-6.55-0.8-13.33,0.85-19.69c0.22-0.84,0.84-3.08-0.28-4.28
		c-1.01-1.07-2.71-0.54-7.52,0.19c-7.47,1.14-10.45,0.92-11.49,0.83c-6.87-0.57-8.18-2.71-12.77-2.97
		c-4.89-0.28-8.62,1.6-15.42,6.35c-15.74,11-28.87,26.8-29.35,27.23c-0.01,0.01-0.07,0.07-0.07,0.07c0.04,0.05,6.3-4.89,17.79-8.94
		C193.65,24.2,197.75,23.28,200.98,22.72z"/>
	<path class="st2" d="M22.97,165.1c-10.15,16.63-15.99,31.17-19.45,41.5c-3.56,10.62-4.41,16.22-2.59,22.2
		c2.5,8.23,10.52,18.81,22.05,18.65c11.43-0.16,19.03-10.7,21.4-18.65c1.84-6.16,0.85-11.79-2.81-22.59
		C38.04,195.85,32.35,181.54,22.97,165.1z"/>
</g>
</svg>
